<svg width="23" height="16" viewBox="0 0 23 16" fill="none" xmlns="http://www.w3.org/2000/svg">
<path d="M0.749998 8.0002C0.749998 8.00013 0.749998 8.00005 0.749998 7.99998C0.750038 7.87246 0.785259 7.74058 0.829456 7.63079C0.873541 7.52129 0.936346 7.40954 1.01111 7.32653C1.01132 7.3263 1.01154 7.32606 1.01175 7.32582L6.61086 1.06329L6.61084 1.06328L6.61316 1.06075C6.96617 0.676679 7.54983 0.632149 7.95891 1.01964L7.95898 1.0197C8.15313 1.20374 8.24183 1.46283 8.24726 1.70838C8.25269 1.95384 8.1758 2.21488 8.00054 2.41008C8.00046 2.41018 8.00038 2.41027 8.00029 2.41036L3.8786 7.01317H21.3001C21.8368 7.01317 22.25 7.46738 22.25 7.99996C22.25 8.53294 21.8365 8.98675 21.3001 8.98675H3.8786L8.00029 13.5896C8.00034 13.5896 8.00039 13.5897 8.00045 13.5897C8.17657 13.7858 8.25028 14.0448 8.24309 14.2887C8.23591 14.5326 8.14729 14.7856 7.96678 14.9722C7.58411 15.3683 6.95926 15.3272 6.61081 14.9363C6.61072 14.9362 6.61064 14.9361 6.61055 14.936L1.01402 8.67664C0.793472 8.44687 0.753284 8.21381 0.750029 8.00386L0.986006 8.0002H0.749998Z" fill="white" stroke="white" stroke-width="0.5"/>
</svg>
