<svg width="23" height="16" viewBox="0 0 23 16" fill="none" xmlns="http://www.w3.org/2000/svg">
<path d="M22.25 8.0002C22.25 8.00013 22.25 8.00005 22.25 7.99998C22.25 7.87246 22.2147 7.74058 22.1705 7.63079C22.1265 7.52129 22.0637 7.40954 21.9889 7.32653C21.9887 7.3263 21.9885 7.32606 21.9883 7.32582L16.3891 1.06329L16.3892 1.06328L16.3868 1.06075C16.0338 0.676679 15.4502 0.632149 15.0411 1.01964L15.041 1.0197C14.8469 1.20374 14.7582 1.46283 14.7527 1.70838C14.7473 1.95384 14.8242 2.21488 14.9995 2.41008C14.9995 2.41018 14.9996 2.41027 14.9997 2.41036L19.1214 7.01317H1.69995C1.16317 7.01317 0.75 7.46738 0.75 7.99996C0.75 8.53294 1.16354 8.98675 1.69995 8.98675H19.1214L14.9997 13.5896C14.9997 13.5896 14.9996 13.5897 14.9996 13.5897C14.8234 13.7858 14.7497 14.0448 14.7569 14.2887C14.7641 14.5326 14.8527 14.7856 15.0332 14.9722C15.4159 15.3683 16.0407 15.3272 16.3892 14.9363C16.3893 14.9362 16.3894 14.9361 16.3894 14.936L21.986 8.67664C22.2065 8.44687 22.2467 8.21381 22.25 8.00386L22.014 8.0002H22.25Z" fill="#001E0A" stroke="#001E0A" stroke-width="0.5"/>
</svg>
