
<svg width="13" height="7" viewBox="0 0 13 7" fill="none" xmlns="http://www.w3.org/2000/svg">
<path d="M6.6167 6.99458C6.87236 6.96991 7.11412 6.86657 7.30869 6.69895L12.5339 2.21677C12.7969 2.0059 12.963 1.69722 12.9946 1.3615C13.026 1.02575 12.9201 0.691755 12.7009 0.435541C12.4819 0.179341 12.1682 0.0230164 11.832 0.00234403C11.4957 -0.0183259 11.1654 0.0984 10.9165 0.325938L6.5 4.11565L2.08351 0.325937C1.83461 0.0985684 1.50433 -0.0181556 1.16798 0.00251667C0.831783 0.023013 0.518153 0.17934 0.2991 0.43554C0.0798889 0.69174 -0.0259852 1.02592 0.00542881 1.36168C0.0370173 1.69744 0.203118 2.00591 0.46606 2.21676L5.69131 6.69895C5.94697 6.91902 6.28093 7.02567 6.61657 6.99475L6.6167 6.99458Z" fill="#001E0A"/>
</svg>
