
<svg width="13" height="7" viewBox="0 0 13 7" fill="none" xmlns="http://www.w3.org/2000/svg">
<path d="M6.6167 0.00542165C6.87236 0.0300865 7.11412 0.133435 7.30869 0.30105L12.5339 4.78323C12.7969 4.9941 12.963 5.30278 12.9946 5.6385C13.026 5.97425 12.9201 6.30825 12.7009 6.56446C12.4819 6.82066 12.1682 6.97698 11.832 6.99766C11.4957 7.01833 11.1654 6.9016 10.9165 6.67406L6.5 2.88435L2.08351 6.67406C1.83461 6.90143 1.50433 7.01816 1.16798 6.99748C0.831783 6.97699 0.518153 6.82066 0.2991 6.56446C0.0798889 6.30826 -0.0259852 5.97408 0.00542881 5.63832C0.0370173 5.30256 0.203118 4.99409 0.46606 4.78324L5.69131 0.30105C5.94697 0.0809782 6.28093 -0.0256738 6.61657 0.00524795L6.6167 0.00542165Z" fill="#001E0A"/>
</svg>
