<svg width="7" height="13" viewBox="0 0 7 13" fill="none" xmlns="http://www.w3.org/2000/svg">
<path d="M6.99458 6.3833C6.96991 6.12764 6.86657 5.88588 6.69895 5.69131L2.21677 0.466058C2.0059 0.203107 1.69722 0.0370101 1.3615 0.00542755C1.02575 -0.0259875 0.691755 0.079887 0.435541 0.299099C0.179341 0.518137 0.0230164 0.831755 0.00234408 1.16798C-0.0183259 1.50434 0.0984 1.83464 0.325938 2.08351L4.11565 6.5L0.325937 10.9165C0.0985689 11.1654 -0.0181551 11.4957 0.00251718 11.832C0.0230135 12.1682 0.17934 12.4818 0.435541 12.7009C0.691741 12.9201 1.02592 13.026 1.36168 12.9946C1.69744 12.963 2.00591 12.7969 2.21677 12.5339L6.69895 7.30869C6.91902 7.05303 7.02567 6.71907 6.99475 6.38343L6.99458 6.3833Z" fill="#001E0A"/>
</svg>
