<svg width="18" height="23" viewBox="0 0 18 23" fill="none" xmlns="http://www.w3.org/2000/svg">
<path fill-rule="evenodd" clip-rule="evenodd" d="M4.23575 1.97739C5.49991 0.713226 7.21389 0.00209608 9.00169 0C10.7896 0.00179718 12.5037 0.712832 13.768 1.97706C15.0322 3.2413 15.7432 4.95545 15.745 6.74334V6.89382C15.745 9.50856 16.3651 12.1606 17.5881 14.7765C17.8611 15.3601 18.0017 15.9968 18 16.6411C18 16.8662 17.9106 17.082 17.7514 17.2412C17.5923 17.4003 17.3765 17.4897 17.1514 17.4897H0.848586C0.62353 17.4897 0.407691 17.4003 0.248552 17.2412C0.0894134 17.082 1.08837e-05 16.8662 1.08837e-05 16.6411C-0.00142685 15.9967 0.139595 15.36 0.412983 14.7765C1.63719 12.1561 2.25835 9.50178 2.25835 6.8859V6.74334C2.26045 4.95554 2.97158 3.24156 4.23575 1.97739ZM6.86289 19.0997C7.02203 18.9406 7.23787 18.8512 7.46292 18.8512H10.5178C10.7428 18.8512 10.9587 18.9406 11.1178 19.0997C11.277 19.2588 11.3664 19.4747 11.3664 19.6997C11.3664 20.3299 11.116 20.9342 10.6704 21.3798C10.2249 21.8254 9.62051 22.0757 8.99036 22.0757C8.3602 22.0757 7.75585 21.8254 7.31026 21.3798C6.86468 20.9342 6.61435 20.3299 6.61435 19.6997C6.61435 19.4747 6.70375 19.2588 6.86289 19.0997Z" fill="#001E0A"/>
</svg>
