<svg width="15" height="16" viewBox="0 0 15 16" fill="none" xmlns="http://www.w3.org/2000/svg">
<path d="M1.97129 14.549C2.02017 15.0866 2.46005 15.4776 2.99768 15.4776H11.4368C11.9745 15.4776 12.4143 15.0703 12.4632 14.549L13.4081 4.64355H1.02637L1.97129 14.549ZM9.28631 7.739C9.28631 7.46204 9.5144 7.21766 9.80765 7.21766C10.0846 7.21766 10.329 7.44575 10.329 7.739V12.3822C10.329 12.6591 10.1009 12.9035 9.80765 12.9035C9.53069 12.9035 9.28631 12.6754 9.28631 12.3822V7.739ZM6.69592 7.739C6.69592 7.46204 6.924 7.21766 7.21725 7.21766C7.49421 7.21766 7.73859 7.44575 7.73859 7.739V12.3822C7.73859 12.6591 7.51051 12.9035 7.21725 12.9035C6.94029 12.9035 6.69592 12.6754 6.69592 12.3822V7.739ZM4.12181 7.739C4.12181 7.46204 4.3499 7.21766 4.64315 7.21766C4.92011 7.21766 5.16449 7.44575 5.16449 7.739V12.3822C5.16449 12.6591 4.9364 12.9035 4.64315 12.9035C4.36619 12.9035 4.12181 12.6754 4.12181 12.3822V7.739Z" fill="#EB5757"/>
<path d="M13.4082 1.54772H9.28633V1.02638C9.28633 0.456171 8.83016 0 8.25995 0H6.19089C5.62067 0 5.1645 0.456171 5.1645 1.02638V1.54772H1.02638C0.456171 1.54772 0 2.00389 0 2.57411C0 3.14432 0.456171 3.60049 1.02638 3.60049H13.4082C13.9784 3.60049 14.4345 3.14432 14.4345 2.57411C14.4345 2.00389 13.9784 1.54772 13.4082 1.54772Z" fill="#EB5757"/>
</svg>
