<svg width="16" height="16" viewBox="0 0 16 16" fill="none" xmlns="http://www.w3.org/2000/svg">
<path d="M13.5742 1.304e-05C13.4349 0.000978125 13.2952 0.0552868 13.1877 0.16277L12.5822 0.768421L11.6058 1.74479L11.2178 2.13272L11.6005 2.51551L13.4845 4.3995L13.8673 4.78221L14.2552 4.39419L15.2316 3.41782L15.8372 2.81226C16.0522 2.59729 16.0545 2.25347 15.8425 2.04145L13.9585 0.157462C13.8525 0.0514556 13.7135 -0.00095025 13.5742 1.304e-05ZM10.5487 2.8019L2.25452 11.0961L1.54057 11.81L1.8939 12.1633L3.83671 14.1062L4.19005 14.4594L4.90401 13.7455L13.1981 5.45138L10.5487 2.8019ZM0.906662 12.4439L0.906572 12.444L0.774382 12.9194L0.183285 15.0451L0.0183025 15.6385C-0.0549291 15.9019 0.0980842 16.0549 0.361453 15.9817L0.95486 15.8167L3.08063 15.2256L3.55597 15.0935V15.0933L3.45571 14.9931L1.00691 12.5443L0.906662 12.4439Z" fill="#85D13A"/>
</svg>
