
<svg width="20" height="20" viewBox="0 0 20 20" fill="none" xmlns="http://www.w3.org/2000/svg">
<path d="M10 0C4.48603 0 0 4.48603 0 10C0 15.514 4.48603 20 10 20C15.514 20 20 15.514 20 10C20 4.48603 15.514 0 10 0ZM1.91781 10C1.91781 9.38822 1.98849 8.7926 2.11781 8.21918H3.91918C3.82301 8.80767 3.76849 9.40986 3.76849 10.0258C3.76849 10.6238 3.82082 11.2082 3.9126 11.7808H2.11781C1.98849 11.2074 1.91781 10.6118 1.91781 10ZM5.68658 10.0258C5.68658 9.40712 5.75014 8.80411 5.86795 8.21918H9.0411V11.7808H5.85425C5.74548 11.2145 5.68658 10.6293 5.68658 10.0258ZM10.9589 3.03096C12.0778 3.94795 12.9392 5.05781 13.5088 6.30164H10.9589V3.03096ZM9.0411 3.02575V6.30137H6.48959C7.05973 5.05616 7.92027 3.94329 9.0411 3.02575ZM9.0411 13.6986V16.9827C7.89452 16.0581 7.02822 14.9477 6.46219 13.6986H9.0411ZM10.9589 16.9778V13.6986H13.537C12.9715 14.9466 12.1036 16.0537 10.9589 16.9778ZM10.9589 11.7808V8.21918H14.1351C14.2529 8.80384 14.3134 9.4074 14.3134 10.0258C14.3134 10.629 14.2562 11.2148 14.1471 11.7808H10.9589ZM16.0805 8.21918H17.8819C18.0115 8.7926 18.0819 9.38822 18.0819 10C18.0819 10.6118 18.0112 11.2074 17.8819 11.7808H16.0868C16.1786 11.2082 16.231 10.6236 16.231 10.0258C16.2312 9.40986 16.1767 8.80767 16.0805 8.21918ZM17.1827 6.30137H15.5866C15.1005 4.95534 14.3468 3.72219 13.3523 2.64877C15.0008 3.40356 16.3526 4.69616 17.1827 6.30137ZM6.64794 2.64877C5.65342 3.72219 4.89973 4.95534 4.4137 6.30137H2.81753C3.6474 4.69616 4.99918 3.40356 6.64794 2.64877ZM2.81726 13.6986H4.40411C4.88877 15.0416 5.64274 16.2734 6.6389 17.3474C4.99425 16.5921 3.64603 15.3014 2.81726 13.6986ZM13.3611 17.3474C14.3575 16.2734 15.1115 15.0416 15.5959 13.6986H17.1827C16.354 15.3014 15.0058 16.5921 13.3611 17.3474Z" fill="#001E0A"/>
</svg>
