<svg width="12" height="19" viewBox="0 0 12 19" fill="none" xmlns="http://www.w3.org/2000/svg">
<path d="M5.86752 17.0098C5.56922 16.716 5.25254 16.3828 4.92716 16.0168C3.91068 16.0853 3.02517 16.2499 2.39436 16.4745C1.82063 16.6785 1.47661 16.9138 1.47661 17.1459C1.47661 17.4245 1.95174 17.7005 2.71934 17.9209C3.55569 18.1608 4.71556 18.3096 6.00008 18.3096C7.2846 18.3096 8.44447 18.1608 9.28082 17.9209C10.0484 17.7004 10.5235 17.4245 10.5235 17.1459C10.5235 16.9138 10.1795 16.6787 9.60579 16.4745C8.97496 16.2501 8.08948 16.0852 7.073 16.0168C6.74761 16.3826 6.43092 16.7159 6.13264 17.0098C6.05902 17.0821 5.94087 17.0818 5.86765 17.0098H5.86752ZM6.83893 15.7114C6.84633 15.7013 6.85439 15.6919 6.86351 15.6834C7.98942 14.4073 9.21618 12.7495 10.1633 11.0338C11.1063 9.32495 11.7692 7.5638 11.7692 6.07882C11.7692 4.4857 11.1233 3.04311 10.0794 1.99942C9.03564 0.955466 7.59308 0.30957 5.99996 0.30957C4.40684 0.30957 2.96425 0.955466 1.92056 1.99942C0.876609 3.04314 0.230713 4.4857 0.230713 6.07882C0.230713 7.5637 0.893526 9.32481 1.83666 11.0338C2.78374 12.7496 4.01051 14.4075 5.13641 15.6834C5.14553 15.6918 5.15359 15.7012 5.16165 15.712C5.45057 16.0385 5.73169 16.3386 5.99996 16.6085C6.26813 16.3389 6.54961 16.0383 6.83893 15.7114ZM8.15187 3.9269C8.70222 4.47697 9.04279 5.23811 9.04279 6.07882C9.04279 6.91886 8.70195 7.67973 8.14659 8.23562C7.59269 8.78502 6.83592 9.12167 5.99998 9.12167C5.15913 9.12167 4.39813 8.7811 3.84846 8.23034C3.29797 7.67986 2.95713 6.919 2.95713 6.07882C2.95713 5.23797 3.2977 4.47697 3.84846 3.92639C4.39813 3.37658 5.15913 3.03601 5.99998 3.03601C6.84083 3.03601 7.60183 3.37658 8.1519 3.92693L8.15187 3.9269Z" fill="#001E0A"/>
</svg>
