<svg width="20" height="23" viewBox="0 0 20 23" fill="none" xmlns="http://www.w3.org/2000/svg">
<path fill-rule="evenodd" clip-rule="evenodd" d="M16.6667 13.0714C16.6667 10.7448 15.326 8.71343 13.3333 7.62659V4.17931C17.2173 5.47368 20 8.96614 20 13.0714C20 18.2787 15.5229 22.5 10 22.5C4.47714 22.5 0 18.2787 0 13.0714C0 8.96614 2.78271 5.47368 6.66667 4.17931V7.62659C4.67401 8.71343 3.33333 10.7448 3.33333 13.0714C3.33333 16.5429 6.31812 19.3571 10 19.3571C13.6819 19.3571 16.6667 16.5429 16.6667 13.0714ZM8.33333 9.92835V2.07163C8.33333 1.20376 9.07953 0.5 10 0.5C10.9207 0.5 11.6667 1.20366 11.6667 2.07163V9.92835C11.6667 10.7962 10.9205 11.5 10 11.5C9.07932 11.5 8.33333 10.7963 8.33333 9.92835Z" fill="#001E0A"/>
</svg>
