<svg width="18" height="14" viewBox="0 0 18 14" fill="none" xmlns="http://www.w3.org/2000/svg">
<path d="M10.0389 7.08804L17.2258 1.18415C16.6105 0.437506 15.6949 0.00343637 14.7273 0H3.27294C2.30535 0.00342431 1.3897 0.437506 0.774414 1.18415L7.96134 7.08804C8.25433 7.32788 8.62127 7.45896 9 7.45896C9.37874 7.45896 9.7457 7.32788 10.0387 7.08804H10.0389Z" fill="#001E0A"/>
<path d="M11.0775 8.35318C10.4912 8.83245 9.75723 9.09435 9.00004 9.09435C8.24285 9.09435 7.50883 8.83245 6.92258 8.35318L0.056844 2.71332C0.0216422 2.89796 0.00260182 3.08532 0 3.27327V10.6369C0.000958818 11.5046 0.346131 12.3365 0.959625 12.9501C1.57312 13.5636 2.40511 13.9088 3.27283 13.9096H14.7272C15.5949 13.9088 16.4269 13.5636 17.0404 12.9501C17.6539 12.3365 17.9991 11.5046 18 10.6369V3.27327C17.9974 3.08534 17.9784 2.89797 17.9432 2.71332L11.0775 8.35318Z" fill="#001E0A"/>
</svg>
