<svg width="34" height="37" viewBox="0 0 34 37" fill="none" xmlns="http://www.w3.org/2000/svg">
<circle cx="16" cy="21" r="15.5" stroke="#A1EDE8"/>
<path d="M13.9976 25.7938C13.6119 25.7452 13.2357 25.7089 12.8633 25.6485C12.0666 25.5193 11.2756 25.3656 10.5879 24.9022C10.2471 24.6725 10.0284 24.3617 10.0021 23.9433C9.98124 23.6103 10.1159 23.3242 10.3156 23.0658C10.5128 22.8106 10.7361 22.5715 10.903 22.298C11.2034 21.8058 11.3337 21.248 11.42 20.6843C11.561 19.7634 11.673 18.838 11.8216 17.9184C11.9449 17.155 12.1604 16.4185 12.5724 15.7507C13.1047 14.8883 13.8869 14.3903 14.856 14.1573C15.3598 14.0362 15.8717 13.9766 16.3882 14.0085C17.2915 14.0644 18.1513 14.2647 18.894 14.8237C19.3833 15.1919 19.7327 15.6698 19.9859 16.2191C20.3415 16.9906 20.4889 17.8168 20.6052 18.6511C20.7364 19.5927 20.8019 20.5454 21.0611 21.466C21.2179 22.0231 21.4758 22.52 21.8843 22.9434C22.2303 23.3021 22.4147 23.7298 22.2468 24.2424C22.1495 24.5396 21.9457 24.7512 21.692 24.9225C21.2108 25.2474 20.6664 25.4148 20.107 25.5236C19.5052 25.6407 18.8958 25.7191 18.2683 25.8177C18.2568 26.5504 17.9657 27.1785 17.334 27.6239C16.9136 27.9203 16.4353 28.0387 15.9276 27.989C14.9854 27.8968 14.0105 27.1381 13.9976 25.7938ZM11.3398 23.874C11.3905 23.9046 11.4269 23.9328 11.4679 23.9502C11.5927 24.0033 11.7162 24.0627 11.8456 24.1013C12.9473 24.4299 14.0841 24.5209 15.2234 24.554C16.3714 24.5873 17.5224 24.5944 18.6643 24.436C19.2064 24.3608 19.7467 24.2657 20.2821 24.1528C20.521 24.1024 20.746 23.9859 20.9956 23.8926C20.9409 23.8246 20.9184 23.7909 20.8903 23.7627C20.3169 23.1888 19.996 22.4785 19.7881 21.7094C19.5363 20.7776 19.4631 19.8165 19.331 18.8652C19.2438 18.2371 19.1442 17.6114 18.929 17.0119C18.63 16.1792 18.0715 15.6271 17.1933 15.4211C16.586 15.2786 15.9799 15.2642 15.3632 15.3642C14.3334 15.5312 13.6759 16.1113 13.3493 17.0937C13.1321 17.7474 13.0403 18.4248 12.9407 19.1012C12.8358 19.8132 12.7566 20.5296 12.6285 21.2373C12.4978 21.9594 12.261 22.6506 11.8336 23.259C11.6862 23.4687 11.5127 23.6602 11.3398 23.874ZM14.9924 25.8503C14.935 26.2192 15.175 26.6583 15.5538 26.8783C15.9477 27.107 16.4975 27.0739 16.8356 26.7951C17.1332 26.5496 17.3042 26.2436 17.2882 25.8503C16.5112 25.8503 15.7572 25.8503 14.9924 25.8503Z" fill="#A1EDE8"/>
<circle cx="26" cy="8" r="7.5" fill="#EB5757" stroke="#001E0A"/>
<path d="M24.708 5.1V10.5H23.748V7.292C23.748 7.03067 23.7693 6.82267 23.812 6.668L23.788 6.652C23.7293 6.73733 23.636 6.812 23.508 6.876L22.796 7.244V6.284L23.804 5.572L23.956 5.1H24.708ZM27.4418 4.98C27.9431 4.98 28.3325 5.10533 28.6098 5.356C28.8871 5.60667 29.0258 5.95333 29.0258 6.396C29.0258 6.66267 28.9698 6.924 28.8578 7.18C28.7458 7.436 28.5591 7.732 28.2978 8.068L27.4818 9.132C27.3325 9.32933 27.1725 9.5 27.0018 9.644L27.0178 9.668C27.1938 9.60933 27.4525 9.58 27.7938 9.58H29.2578L29.2658 9.596L28.7458 10.5H25.3058L25.2818 10.444L27.5138 7.58C27.8445 7.15333 28.0098 6.80133 28.0098 6.524C28.0098 6.32667 27.9511 6.17467 27.8338 6.068C27.7165 5.956 27.5538 5.9 27.3458 5.9C26.9831 5.9 26.5725 6.06533 26.1138 6.396L25.6338 5.62C26.2365 5.19333 26.8391 4.98 27.4418 4.98Z" fill="white"/>
</svg>
