<svg width="18" height="22" viewBox="0 0 18 22" fill="none" xmlns="http://www.w3.org/2000/svg">
<path fill-rule="evenodd" clip-rule="evenodd" d="M1.80001 20.1103V4.8103C1.80001 4.47889 2.06867 4.21036 2.4001 4.21036H15.6C15.9314 4.21036 16.2001 4.47888 16.2001 4.8103V20.1103H17.7026C17.8655 20.1103 18 20.2459 18 20.4131V21.0075C18 21.1772 17.8668 21.3103 17.7026 21.3103H0.297406C0.134472 21.3103 0 21.1747 0 21.0075V20.4131C0 20.2433 0.13319 20.1103 0.297406 20.1103H1.80001ZM10.4999 17.7103V19.8112C10.4999 19.9764 10.6329 20.1103 10.8027 20.1103H11.3971C11.5643 20.1103 11.6999 19.9735 11.6999 19.8117V17.1103C11.6999 16.7789 11.4312 16.5103 11.0999 16.5103H6.89971C6.56844 16.5103 6.29977 16.7789 6.29977 17.1103V19.8117C6.29977 19.9767 6.43282 20.1103 6.60258 20.1103H7.19695C7.36415 20.1103 7.49976 19.9744 7.49976 19.8112V17.7103H10.4999ZM4.19992 6.01015C3.86865 6.01015 3.59998 6.27881 3.59998 6.61009V9.01011C3.59998 9.34153 3.86864 9.6102 4.19992 9.6102H7.79993C8.13135 9.6102 8.40002 9.34154 8.40002 9.01011V6.61009C8.40002 6.27882 8.13136 6.01015 7.79993 6.01015H4.19992ZM4.19992 11.1101C3.86865 11.1101 3.59998 11.3788 3.59998 11.7101V14.1101C3.59998 14.4415 3.86864 14.7102 4.19992 14.7102H7.79993C8.13135 14.7102 8.40002 14.4415 8.40002 14.1101V11.7101C8.40002 11.3788 8.13136 11.1101 7.79993 11.1101H4.19992ZM10.2001 6.01015C9.86865 6.01015 9.59998 6.27881 9.59998 6.61009V9.01011C9.59998 9.34153 9.86864 9.6102 10.2001 9.6102H13.8001C14.1314 9.6102 14.4 9.34154 14.4 9.01011V6.61009C14.4 6.27882 14.1314 6.01015 13.8001 6.01015H10.2001ZM10.2001 11.1101C9.86865 11.1101 9.59998 11.3788 9.59998 11.7101V14.1101C9.59998 14.4415 9.86864 14.7102 10.2001 14.7102H13.8001C14.1314 14.7102 14.4 14.4415 14.4 14.1101V11.7101C14.4 11.3788 14.1314 11.1101 13.8001 11.1101H10.2001ZM4.80026 8.41017V7.21018H7.20028V8.41017H4.80026ZM4.80026 12.3102H7.20028V13.5102H4.80026V12.3102ZM10.8 8.41017V7.21018H13.2001V8.41017H10.8ZM10.8 12.3102H13.2001V13.5102H10.8V12.3102ZM3.30014 3.31018V1.5101C3.30014 1.17882 3.56866 0.910156 3.90008 0.910156H14.1001C14.4315 0.910156 14.7 1.17882 14.7 1.5101V3.31018H3.30014Z" fill="#001E0A"/>
</svg>
