<svg width="15" height="19" viewBox="0 0 15 19" fill="none" xmlns="http://www.w3.org/2000/svg">
<path fill-rule="evenodd" clip-rule="evenodd" d="M2.6983 5.65028V7.21032C1.57574 7.21032 0.63495 7.88159 0.204453 8.89013C0.0760045 9.19092 0 9.61331 0 10.0348V16.0428C0 16.806 0.172622 17.3304 0.589814 17.877C0.620524 17.9177 0.634268 17.9275 0.667783 17.9675C0.706765 18.0139 0.708729 18.0262 0.753042 18.0722C1.16742 18.5026 1.86069 18.9097 2.69832 18.9097H11.7207C12.825 18.9097 13.8143 18.2014 14.2054 17.2416C14.3423 16.9064 14.4189 16.5319 14.4189 16.0638V10.077C14.4189 8.94888 13.9027 7.98033 12.9294 7.49821C12.5331 7.30175 12.2317 7.21018 11.7206 7.21018C11.7206 6.02553 11.8162 4.74693 11.3744 3.69858C11.2599 3.42682 11.1327 3.17805 10.983 2.95171L10.7443 2.62119C10.6923 2.5571 10.6641 2.52149 10.6086 2.46161C10.1195 1.93577 9.84 1.69722 9.13477 1.34272C7.7148 0.628804 5.83306 0.818815 4.57995 1.75627C4.28168 1.97923 4.06796 2.15859 3.82974 2.4396L3.5748 2.75386C3.52881 2.82075 3.49319 2.86155 3.45253 2.92676C3.29253 3.18127 3.17655 3.39147 3.05021 3.68386C2.8128 4.23329 2.69781 4.87035 2.69781 5.65028L2.6983 5.65028ZM7.14649 15.3052C7.32402 15.3052 7.46607 15.2992 7.62258 15.2125L7.87149 15.0182C8.02083 14.8577 8.11815 14.6593 8.11661 14.3571L8.11436 13.2587C8.11857 13.0537 8.21533 13.1493 8.38332 12.8318C8.43928 12.7269 8.48569 12.6428 8.51696 12.5229C8.5415 12.4288 8.57572 12.2513 8.57895 12.1418C8.58484 11.9499 8.4798 11.6113 8.37365 11.4427C7.55107 10.1376 5.51016 10.9795 5.8937 12.4895C6.01191 12.9541 6.28227 13.0905 6.30205 13.1984L6.30289 14.3358C6.30107 14.6589 6.39839 14.8707 6.56862 15.0397C6.57171 15.0428 6.57619 15.0472 6.57928 15.0502L6.64519 15.1105C6.69006 15.1504 6.73058 15.1736 6.78345 15.2042C6.86843 15.2539 7.01932 15.3052 7.1465 15.3052L7.14649 15.3052ZM4.51132 5.52391C4.51132 4.63219 4.82613 3.99668 5.27542 3.54751C5.56626 3.25682 5.71252 3.14968 6.07065 2.9727C6.9464 2.54066 7.97159 2.67598 8.77371 3.22175C9.44429 3.67792 9.90775 4.50541 9.90775 5.52375V7.21016H4.5111V5.52375L4.51132 5.52391Z" fill="#001E0A"/>
</svg>
