<svg width="40" height="40" viewBox="0 0 40 40" fill="none" xmlns="http://www.w3.org/2000/svg">
<circle cx="20" cy="20" r="20" fill="#E0E0E0"/>
<path d="M25.5742 12C25.4349 12.001 25.2952 12.0553 25.1877 12.1628L24.5822 12.7684L23.6058 13.7448L23.2178 14.1327L23.6005 14.5155L25.4845 16.3995L25.8673 16.7822L26.2552 16.3942L27.2316 15.4178L27.8372 14.8123C28.0522 14.5973 28.0545 14.2535 27.8425 14.0415L25.9585 12.1575C25.8525 12.0515 25.7135 11.999 25.5742 12ZM22.5487 14.8019L14.2545 23.0961L13.5406 23.81L13.8939 24.1633L15.8367 26.1062L16.1901 26.4594L16.904 25.7455L25.1981 17.4514L22.5487 14.8019ZM12.9067 24.4439L12.9066 24.444L12.7744 24.9194L12.1833 27.0451L12.0183 27.6385C11.9451 27.9019 12.0981 28.0549 12.3615 27.9817L12.9549 27.8167L15.0806 27.2256L15.556 27.0935V27.0933L15.4557 26.9931L13.0069 24.5443L12.9067 24.4439Z" fill="#03314B"/>
</svg>
