<svg width="17" height="20" viewBox="0 0 17 20" fill="none" xmlns="http://www.w3.org/2000/svg">
<path fill-rule="evenodd" clip-rule="evenodd" d="M13.1439 5.93557C13.1142 5.93036 13.0845 5.93159 13.0542 5.93649C13.041 2.66039 10.8189 0 8.08872 0C5.35021 0 3.12265 2.67663 3.12265 5.96651V5.97478C3.05587 5.93925 2.98817 5.92393 2.9217 5.93557C2.6209 5.98795 2.46682 6.54699 2.5774 7.18383C2.68829 7.82097 3.02218 8.29485 3.3236 8.24247C3.37873 8.23297 3.42897 8.20571 3.47339 8.16466C4.20365 10.3693 5.99624 11.933 8.08872 11.933C10.1619 11.933 11.9416 10.3977 12.6844 8.22501C12.7034 8.23267 12.7227 8.2391 12.7426 8.24247C13.0434 8.29485 13.3773 7.82097 13.4888 7.18383C13.5991 6.54668 13.4447 5.98795 13.1439 5.93557ZM8.08872 11.0064C5.86115 11.0064 4.04896 8.74545 4.04896 5.9662C4.04896 5.48405 4.10441 5.01784 4.20641 4.57581C5.23503 3.24455 7.42492 3.1502 8.6842 4.70845C10.0054 6.34359 11.6972 6.39934 12.1135 6.38647C11.9416 8.96998 10.2029 11.0064 8.08872 11.0064ZM10.6532 11.939H10.5249C10.1974 12.1455 9.84116 12.31 9.46591 12.4313L8.03295 18.5595V18.5776L8.0305 18.5687L8.02835 18.5776V18.5595L6.596 12.4325C6.21922 12.3115 5.86175 12.1458 5.53245 11.939H5.4038C2.41932 11.939 0 14.3584 0 17.3428V19.3502C0 19.3832 0.00113933 19.4163 0.00227867 19.4494C0.00291168 19.4678 0.0035447 19.4862 0.00398231 19.5045H16.053L16.0544 19.4624C16.0557 19.425 16.057 19.3876 16.057 19.3502V17.3428C16.057 14.3584 13.6377 11.939 10.6532 11.939ZM14.367 16.532H10.6618V15.8756H14.367V16.532ZM0.0808767 13.4022C0.074444 13.4117 0.067705 13.4215 0.0606596 13.4304V13.4022H0.0808767Z" fill="#001E0A"/>
</svg>
