<svg width="18" height="19" viewBox="0 0 18 19" fill="none" xmlns="http://www.w3.org/2000/svg">
<path d="M16.9503 14.9319L16.8502 14.7316C16.5699 14.0711 13.1271 13.0703 12.8469 13.0503L12.6267 13.0703C12.2063 13.1503 11.7459 13.5306 10.8453 14.3112C10.6651 14.4714 10.4248 14.5115 10.2047 14.3912C9.02373 13.7307 7.58256 12.4096 6.86193 11.609C6.0813 10.7483 5.14053 9.32712 4.70017 8.18612C4.62017 7.96593 4.70017 7.72578 4.86032 7.56565C5.88112 6.64483 6.32148 6.20461 6.36155 5.72415C6.38151 5.44393 5.78114 1.90103 5.16049 1.56075L4.98038 1.44068C4.58009 1.18042 3.97956 0.800085 3.31903 0.940271C3.15888 0.980343 2.99873 1.04038 2.85869 1.12039C2.41847 1.40089 1.31754 2.16156 0.817131 3.14225C0.516944 3.76272 0.376772 9.38734 4.5802 14.1312C8.74359 18.835 13.8878 19.0352 14.6484 18.8751H14.6684L14.7284 18.8551C15.7693 18.4748 16.65 17.4941 16.9903 17.0736C17.6108 16.3331 17.1905 15.4322 16.9502 14.9318L16.9503 14.9319Z" fill="#001E0A"/>
</svg>
