<svg width="60" height="26" viewBox="0 0 60 26" fill="none" xmlns="http://www.w3.org/2000/svg">
<rect width="60" height="26" rx="4" fill="#FFCD33"/>
<path d="M10.8743 8.85C11.541 8.85 12.2143 9.01667 12.8943 9.35L12.3243 10.51C11.8176 10.2233 11.331 10.08 10.8643 10.08C10.371 10.08 10.1243 10.25 10.1243 10.59C10.1243 10.7233 10.1643 10.8433 10.2443 10.95C10.3243 11.05 10.4643 11.1733 10.6643 11.32L11.8743 12.18C12.2943 12.4733 12.5976 12.77 12.7843 13.07C12.971 13.37 13.0643 13.7233 13.0643 14.13C13.0643 14.7767 12.8543 15.2767 12.4343 15.63C12.0143 15.9767 11.431 16.15 10.6843 16.15C9.81096 16.15 9.01096 15.9267 8.2843 15.48L8.8643 14.31C9.51763 14.71 10.1376 14.91 10.7243 14.91C11.0443 14.91 11.291 14.8467 11.4643 14.72C11.6376 14.5867 11.7243 14.4133 11.7243 14.2C11.7243 14.04 11.671 13.89 11.5643 13.75C11.4576 13.6033 11.2776 13.44 11.0243 13.26L9.8843 12.44C9.15096 11.9267 8.7843 11.32 8.7843 10.62C8.7843 10.0733 8.96763 9.64333 9.3343 9.33C9.70763 9.01 10.221 8.85 10.8743 8.85ZM15.4622 8.91V10.97C15.4622 11.1767 15.4455 11.3333 15.4122 11.44L15.4422 11.46C15.5089 11.4067 15.6489 11.38 15.8622 11.38H16.3522V12.47H15.8622C15.6489 12.47 15.5089 12.4467 15.4422 12.4L15.4122 12.42C15.4455 12.52 15.4622 12.7067 15.4622 12.98V16H14.2322V12.98C14.2322 12.7067 14.2522 12.52 14.2922 12.42L14.2622 12.4C14.1955 12.4467 14.0522 12.47 13.8322 12.47H13.4322V11.38H13.8322C14.0522 11.38 14.1955 11.4067 14.2622 11.46L14.2922 11.44C14.2522 11.3333 14.2322 11.1767 14.2322 10.97V9.7L15.3622 8.91H15.4622ZM17.3574 11.92C17.8441 11.46 18.4574 11.23 19.1974 11.23C19.9374 11.23 20.5474 11.46 21.0274 11.92C21.5141 12.38 21.7574 12.97 21.7574 13.69C21.7574 14.41 21.5141 15 21.0274 15.46C20.5474 15.92 19.9374 16.15 19.1974 16.15C18.4574 16.15 17.8441 15.92 17.3574 15.46C16.8774 15 16.6374 14.41 16.6374 13.69C16.6374 12.97 16.8774 12.38 17.3574 11.92ZM20.1374 12.75C19.8974 12.51 19.5841 12.39 19.1974 12.39C18.8108 12.39 18.4974 12.51 18.2574 12.75C18.0174 12.9833 17.8974 13.2967 17.8974 13.69C17.8974 14.0833 18.0174 14.4 18.2574 14.64C18.4974 14.8733 18.8108 14.99 19.1974 14.99C19.5841 14.99 19.8974 14.8733 20.1374 14.64C20.3774 14.4 20.4974 14.0833 20.4974 13.69C20.4974 13.2967 20.3774 12.9833 20.1374 12.75ZM24.871 16.15C24.1177 16.15 23.5043 15.9233 23.031 15.47C22.5577 15.01 22.321 14.4167 22.321 13.69C22.321 12.9633 22.5577 12.3733 23.031 11.92C23.5043 11.46 24.1177 11.23 24.871 11.23C25.4577 11.23 25.9977 11.3833 26.491 11.69L25.961 12.7C25.641 12.4867 25.2843 12.38 24.891 12.38C24.5043 12.38 24.1877 12.5033 23.941 12.75C23.701 12.99 23.581 13.3033 23.581 13.69C23.581 14.0767 23.701 14.3933 23.941 14.64C24.1877 14.88 24.5043 15 24.891 15C25.2843 15 25.641 14.8933 25.961 14.68L26.491 15.69C25.9977 15.9967 25.4577 16.15 24.871 16.15ZM28.4604 8.85V12.4C28.4604 12.8333 28.4204 13.17 28.3404 13.41L28.3704 13.42L30.1304 11.38H31.6604L30.0504 13.1C29.8571 13.3067 29.6971 13.4333 29.5704 13.48V13.52C29.6637 13.5533 29.8037 13.6633 29.9904 13.85L31.8504 16H30.2604L28.3704 13.68L28.3404 13.7C28.4204 13.9267 28.4604 14.2467 28.4604 14.66V16H27.2404V8.85H28.4604Z" fill="#001E0A"/>
<path d="M41.1718 6H37.28C37.1399 6 37 6.13992 37 6.27996V8.99598H41.1721L41.1718 6Z" fill="#001E0A"/>
<path d="M50.7197 6H46.8279V8.99598H50.9999V6.27996C50.9999 6.13992 50.86 6 50.72 6H50.7197Z" fill="#001E0A"/>
<path d="M46.8279 12.9999C46.8279 13.3358 46.6319 13.6159 46.3519 13.7558C46.24 13.8118 46.128 13.8399 45.9879 13.8399C45.7919 13.8399 45.596 13.7558 45.4279 13.6438L44 12.4118L42.5439 13.6438C42.4039 13.7838 42.208 13.8399 42.0119 13.8399C41.8999 13.8399 41.76 13.8119 41.6479 13.7558C41.368 13.6158 41.1719 13.3358 41.1719 12.9999L41.1721 9.55591H37V19.7198C37 19.8878 37.14 19.9998 37.28 19.9998H50.7198C50.8599 19.9998 50.9998 19.8877 50.9998 19.7198V9.55591H46.8277L46.8279 12.9999Z" fill="#001E0A"/>
<path d="M41.8998 13.2519C41.9838 13.3079 42.1238 13.2799 42.2078 13.2239L44.0278 11.684L45.8478 13.2239C45.9038 13.2799 45.9599 13.2799 46.0159 13.2799C46.0719 13.2799 46.0999 13.2799 46.1279 13.2519C46.2399 13.1959 46.296 13.1119 46.296 13L46.2958 6.00014H41.7317V13C41.7317 13.112 41.7877 13.196 41.8997 13.2519L41.8998 13.2519Z" fill="#001E0A"/>
</svg>
