<svg width="20" height="20" viewBox="0 0 20 20" fill="none" xmlns="http://www.w3.org/2000/svg">
<path d="M10 0C8.02219 0 6.08879 0.58649 4.4443 1.6853C2.79981 2.78412 1.51809 4.3459 0.761209 6.17316C0.00433284 8.00042 -0.1937 10.0111 0.192152 11.9509C0.578004 13.8907 1.53041 15.6725 2.92894 17.0711C4.32746 18.4696 6.10929 19.422 8.0491 19.8078C9.98891 20.1937 11.9996 19.9957 13.8268 19.2388C15.6541 18.4819 17.2159 17.2002 18.3147 15.5557C19.4135 13.9112 20 11.9778 20 10C20 8.68678 19.7413 7.38642 19.2388 6.17316C18.7362 4.95991 17.9997 3.85752 17.0711 2.92893C16.1425 2.00035 15.0401 1.26375 13.8268 0.761204C12.6136 0.258658 11.3132 0 10 0ZM10.0926 17.3832C8.15391 17.3181 6.31634 16.5022 4.96789 15.1077C3.61945 13.7132 2.86565 11.8493 2.86565 9.90947C2.86565 7.96966 3.61945 6.10575 4.96789 4.71127C6.31634 3.31679 8.15391 2.50088 10.0926 2.43579V17.3832Z" fill="#001E0A"/>
</svg>
